HIERARCHY
ROOT Hips
{
	OFFSET 0.000000 71.427986 0.000000
	CHANNELS 6 Xposition Yposition Zposition Xrotation Yrotation Zrotation
	JOINT Pelvis
	{
		OFFSET 0.000000 0.000000 0.000000
		CHANNELS 3 Xrotation Yrotation Zrotation
		JOINT LeftUpLeg
		{
			OFFSET 6.797100 -2.508499 -1.318700
			CHANNELS 3 Xrotation Yrotation Zrotation
			JOINT LeftLeg
			{
				OFFSET 0.069008 -29.241863 0.690200
				CHANNELS 3 Xrotation Yrotation Zrotation
				JOINT LeftFoot
				{
					OFFSET -0.069008 -29.568123 -0.266800
					CHANNELS 3 Xrotation Yrotation Zrotation
					JOINT LeftToeBase
					{
						OFFSET 3.145500 -8.631000 16.059900
						CHANNELS 3 Xrotation Yrotation Zrotation
						End Site
						{
							OFFSET 0.000000 18.501587 0.000000
						}
					}
				}
			}
			JOINT Left_ShortSleeve
			{
				OFFSET 0.265923 -10.480953 1.153800
				CHANNELS 3 Xrotation Yrotation Zrotation
				End Site
				{
					OFFSET 1.725763 19.823879 0.000000
				}
			}
		}
		JOINT RightUpLeg
		{
			OFFSET -6.797100 -2.508499 -1.318700
			CHANNELS 3 Xrotation Yrotation Zrotation
			JOINT RightLeg
			{
				OFFSET -0.082453 -29.241932 0.688000
				CHANNELS 3 Xrotation Yrotation Zrotation
				JOINT RightFoot
				{
					OFFSET 0.082453 -29.568058 -0.264600
					CHANNELS 3 Xrotation Yrotation Zrotation
					JOINT RightToeBase
					{
						OFFSET -3.115300 -8.682800 16.113400
						CHANNELS 3 Xrotation Yrotation Zrotation
						End Site
						{
							OFFSET 0.000000 18.567114 0.000000
						}
					}
				}
			}
			JOINT Right_ShortSleeve
			{
				OFFSET -0.265923 -10.480953 1.153800
				CHANNELS 3 Xrotation Yrotation Zrotation
				End Site
				{
					OFFSET -1.725766 19.823910 0.000000
				}
			}
		}
	}
	JOINT Spine
	{
		OFFSET 0.000000 13.368103 0.470500
		CHANNELS 3 Xrotation Yrotation Zrotation
		JOINT Spine1
		{
			OFFSET 0.147000 13.837402 0.538800
			CHANNELS 3 Xrotation Yrotation Zrotation
			JOINT Spine2
			{
				OFFSET 0.168000 16.242897 -1.435500
				CHANNELS 3 Xrotation Yrotation Zrotation
				JOINT Neck
				{
					OFFSET 0.217200 18.631500 -1.679100
					CHANNELS 3 Xrotation Yrotation Zrotation
					JOINT Head
					{
						OFFSET 0.000000 6.599396 1.385900
						CHANNELS 3 Xrotation Yrotation Zrotation
						JOINT Hat
						{
							OFFSET -0.532200 27.220596 -10.096100
							CHANNELS 3 Xrotation Yrotation Zrotation
							End Site
							{
								OFFSET 0.000000 22.029861 0.000000
							}
						}
						JOINT HairD
						{
							OFFSET -10.777400 17.437393 -1.325900
							CHANNELS 3 Xrotation Yrotation Zrotation
							JOINT HairD1
							{
								OFFSET -3.290299 -11.051193 1.062200
								CHANNELS 3 Xrotation Yrotation Zrotation
								End Site
								{
									OFFSET 0.000000 11.579437 0.000000
								}
							}
						}
						JOINT HairB
						{
							OFFSET -10.777400 17.437393 1.467900
							CHANNELS 3 Xrotation Yrotation Zrotation
							JOINT HairB1
							{
								OFFSET -1.561200 -12.956299 3.590200
								CHANNELS 3 Xrotation Yrotation Zrotation
								End Site
								{
									OFFSET 0.000000 13.534866 0.000000
								}
							}
						}
						JOINT HairA
						{
							OFFSET 9.713100 17.437393 1.467900
							CHANNELS 3 Xrotation Yrotation Zrotation
							JOINT HairA1
							{
								OFFSET 1.561200 -12.956299 3.590200
								CHANNELS 3 Xrotation Yrotation Zrotation
								End Site
								{
									OFFSET 0.000000 13.534866 0.000000
								}
							}
						}
						JOINT HairC
						{
							OFFSET 9.713100 17.437393 -1.325900
							CHANNELS 3 Xrotation Yrotation Zrotation
							JOINT HairC1
							{
								OFFSET 3.290300 -11.051193 1.062200
								CHANNELS 3 Xrotation Yrotation Zrotation
								End Site
								{
									OFFSET 0.000000 11.579437 0.000000
								}
							}
						}
					}
				}
				JOINT LeftShoulder
				{
					OFFSET 5.101800 15.108002 -2.763700
					CHANNELS 3 Xrotation Yrotation Zrotation
					JOINT LeftArm
					{
						OFFSET 9.825497 2.506317 -1.597400
						CHANNELS 3 Xrotation Yrotation Zrotation
						JOINT LeftForeArm
						{
							OFFSET 21.966244 0.000000 0.000000
							CHANNELS 3 Xrotation Yrotation Zrotation
							JOINT LeftHand
							{
								OFFSET 33.879036 0.000000 0.000000
								CHANNELS 3 Xrotation Yrotation Zrotation
								JOINT LeftHandThumb1
								{
									OFFSET 6.715286 -2.359680 3.363841
									CHANNELS 3 Xrotation Yrotation Zrotation
									JOINT LeftHandThumb2
									{
										OFFSET 2.507072 -1.447464 1.447461
										CHANNELS 3 Xrotation Yrotation Zrotation
										JOINT LeftHandThumb3
										{
											OFFSET 2.898338 -1.673355 1.673357
											CHANNELS 3 Xrotation Yrotation Zrotation
											End Site
											{
												OFFSET -0.295959 3.727692 -0.131651
											}
										}
									}
								}
								JOINT LeftHandIndex1
								{
									OFFSET 14.190811 -0.254547 3.840278
									CHANNELS 3 Xrotation Yrotation Zrotation
									JOINT LeftHandIndex2
									{
										OFFSET 3.551727 0.000000 -0.000000
										CHANNELS 3 Xrotation Yrotation Zrotation
										JOINT LeftHandIndex3
										{
											OFFSET 2.894196 0.000000 0.000000
											CHANNELS 3 Xrotation Yrotation Zrotation
											End Site
											{
												OFFSET -1.000603 2.690872 0.366626
											}
										}
									}
								}
								JOINT LeftHandMiddle1
								{
									OFFSET 13.776489 0.000000 0.000000
									CHANNELS 3 Xrotation Yrotation Zrotation
									JOINT LeftHandMiddle2
									{
										OFFSET 3.438232 0.000000 0.000000
										CHANNELS 3 Xrotation Yrotation Zrotation
										JOINT LeftHandMiddle3
										{
											OFFSET 3.691551 0.000000 0.000000
											CHANNELS 3 Xrotation Yrotation Zrotation
											End Site
											{
												OFFSET -1.082298 3.499527 0.457670
											}
										}
									}
								}
								JOINT LeftHandRing1
								{
									OFFSET 13.966164 -0.268127 -3.067488
									CHANNELS 3 Xrotation Yrotation Zrotation
									JOINT LeftHandRing2
									{
										OFFSET 3.162567 0.000000 0.000000
										CHANNELS 3 Xrotation Yrotation Zrotation
										JOINT LeftHandRing3
										{
											OFFSET 3.324348 0.000000 0.000000
											CHANNELS 3 Xrotation Yrotation Zrotation
											End Site
											{
												OFFSET -0.861900 3.184998 0.405154
											}
										}
									}
								}
								JOINT LeftHandPinky1
								{
									OFFSET 13.131393 -0.168503 -5.746925
									CHANNELS 3 Xrotation Yrotation Zrotation
									JOINT LeftHandPinky2
									{
										OFFSET 2.849182 0.000000 0.000000
										CHANNELS 3 Xrotation Yrotation Zrotation
										JOINT LeftHandPinky3
										{
											OFFSET 2.805038 0.000000 0.000000
											CHANNELS 3 Xrotation Yrotation Zrotation
											End Site
											{
												OFFSET -0.882500 2.642609 0.325652
											}
										}
									}
								}
							}
							JOINT Left_Sleeve
							{
								OFFSET 6.592125 -0.646545 0.805568
								CHANNELS 3 Xrotation Yrotation Zrotation
								End Site
								{
									OFFSET -0.000179 20.275787 -0.000000
								}
							}
						}
					}
				}
				JOINT RightShoulder
				{
					OFFSET -5.731700 15.108002 -2.763700
					CHANNELS 3 Xrotation Yrotation Zrotation
					JOINT RightArm
					{
						OFFSET -9.825497 2.506317 -1.597400
						CHANNELS 3 Xrotation Yrotation Zrotation
						JOINT RightForeArm
						{
							OFFSET -21.966242 0.000000 0.000000
							CHANNELS 3 Xrotation Yrotation Zrotation
							JOINT RightHand
							{
								OFFSET -33.879032 0.000000 0.000000
								CHANNELS 3 Xrotation Yrotation Zrotation
								JOINT RightHandThumb1
								{
									OFFSET -6.715286 -2.359680 3.363841
									CHANNELS 3 Xrotation Yrotation Zrotation
									JOINT RightHandThumb2
									{
										OFFSET -2.507072 -1.447464 1.447461
										CHANNELS 3 Xrotation Yrotation Zrotation
										JOINT RightHandThumb3
										{
											OFFSET -2.898338 -1.673355 1.673357
											CHANNELS 3 Xrotation Yrotation Zrotation
											End Site
											{
												OFFSET 0.295959 3.727692 -0.131651
											}
										}
									}
								}
								JOINT RightHandIndex1
								{
									OFFSET -14.190811 -0.254547 3.840278
									CHANNELS 3 Xrotation Yrotation Zrotation
									JOINT RightHandIndex2
									{
										OFFSET -3.551727 0.000000 -0.000000
										CHANNELS 3 Xrotation Yrotation Zrotation
										JOINT RightHandIndex3
										{
											OFFSET -2.894196 0.000000 0.000000
											CHANNELS 3 Xrotation Yrotation Zrotation
											End Site
											{
												OFFSET 1.000603 2.690872 0.366626
											}
										}
									}
								}
								JOINT RightHandMiddle1
								{
									OFFSET -13.776489 0.000000 0.000000
									CHANNELS 3 Xrotation Yrotation Zrotation
									JOINT RightHandMiddle2
									{
										OFFSET -3.438232 0.000000 0.000000
										CHANNELS 3 Xrotation Yrotation Zrotation
										JOINT RightHandMiddle3
										{
											OFFSET -3.691551 0.000000 0.000000
											CHANNELS 3 Xrotation Yrotation Zrotation
											End Site
											{
												OFFSET 1.082298 3.499527 0.457670
											}
										}
									}
								}
								JOINT RightHandRing1
								{
									OFFSET -13.966164 -0.268127 -3.067488
									CHANNELS 3 Xrotation Yrotation Zrotation
									JOINT RightHandRing2
									{
										OFFSET -3.162567 0.000000 0.000000
										CHANNELS 3 Xrotation Yrotation Zrotation
										JOINT RightHandRing3
										{
											OFFSET -3.324348 0.000000 0.000000
											CHANNELS 3 Xrotation Yrotation Zrotation
											End Site
											{
												OFFSET 0.861900 3.184998 0.405154
											}
										}
									}
								}
								JOINT RightHandPinky1
								{
									OFFSET -13.131393 -0.168503 -5.746925
									CHANNELS 3 Xrotation Yrotation Zrotation
									JOINT RightHandPinky2
									{
										OFFSET -2.849182 0.000000 0.000000
										CHANNELS 3 Xrotation Yrotation Zrotation
										JOINT RightHandPinky3
										{
											OFFSET -2.805038 0.000000 0.000000
											CHANNELS 3 Xrotation Yrotation Zrotation
											End Site
											{
												OFFSET 0.882500 2.642609 0.325652
											}
										}
									}
								}
							}
							JOINT Right_Sleeve
							{
								OFFSET -6.592125 -0.646545 0.805568
								CHANNELS 3 Xrotation Yrotation Zrotation
								End Site
								{
									OFFSET 0.000179 20.275787 -0.000000
								}
							}
						}
					}
				}
				JOINT Bind_Right_JacketString
				{
					OFFSET -3.534800 11.969597 7.200700
					CHANNELS 3 Xrotation Yrotation Zrotation
					JOINT Bind_Right_JacketString1
					{
						OFFSET -0.319900 -6.102600 2.794100
						CHANNELS 3 Xrotation Yrotation Zrotation
						End Site
						{
							OFFSET 0.000000 6.719452 0.000000
						}
					}
				}
				JOINT Bind_Left_JacketString
				{
					OFFSET 2.904800 11.969597 7.200700
					CHANNELS 3 Xrotation Yrotation Zrotation
					JOINT Bind_Left_JacketString1
					{
						OFFSET 0.364800 -5.904503 3.186800
						CHANNELS 3 Xrotation Yrotation Zrotation
						End Site
						{
							OFFSET 0.000000 6.719513 0.000000
						}
					}
				}
				JOINT HairE
				{
					OFFSET 5.915200 17.612701 -11.592200
					CHANNELS 3 Xrotation Yrotation Zrotation
					JOINT HairE1
					{
						OFFSET 0.289200 -7.171898 -1.284500
						CHANNELS 3 Xrotation Yrotation Zrotation
						End Site
						{
							OFFSET 0.000000 7.291756 0.000000
						}
					}
				}
				JOINT HairF
				{
					OFFSET -0.864800 17.612701 -11.592200
					CHANNELS 3 Xrotation Yrotation Zrotation
					JOINT HairF1
					{
						OFFSET 0.000000 -14.087097 -2.127501
						CHANNELS 3 Xrotation Yrotation Zrotation
						End Site
						{
							OFFSET 0.000000 14.246841 0.000000
						}
					}
				}
				JOINT HairG
				{
					OFFSET -8.087700 17.612701 -11.592200
					CHANNELS 3 Xrotation Yrotation Zrotation
					JOINT HairG1
					{
						OFFSET -0.293600 -6.081398 -0.910100
						CHANNELS 3 Xrotation Yrotation Zrotation
						End Site
						{
							OFFSET 0.000000 6.156120 0.000000
						}
					}
				}
			}
		}
	}
	JOINT Pouch
	{
		OFFSET 0.000000 4.394501 10.847300
		CHANNELS 3 Xrotation Yrotation Zrotation
		End Site
		{
			OFFSET 0.000000 21.880577 0.000000
		}
	}
	JOINT Bag
	{
		OFFSET -13.229000 4.813004 -0.593300
		CHANNELS 3 Xrotation Yrotation Zrotation
		End Site
		{
			OFFSET 0.000000 21.880577 0.000000
		}
	}
	JOINT OccupyGuyFacialAnim_Joint
	{
		OFFSET 1.000000 -70.206398 -1.655000
		CHANNELS 3 Xrotation Yrotation Zrotation
		End Site
		{
			OFFSET 0.000000 21.880577 0.000000
		}
	}
}
MOTION
Frames: 4
Frame Time: 0.033333
0.065789 69.563667 1.496634 2.056580 -0.617992 -1.338059 0.000000 0.000000 0.000000 -2.744920 9.253361 -3.039527 25.843404 2.876901 -0.026467 -21.234713 -0.687371 3.330023 0.000000 0.000000 -0.000000 -0.000000 -0.000000 0.000000 -41.301058 -5.781155 0.386458 85.942754 -6.819447 -0.423814 23.931485 -1.954625 -10.600374 0.000000 -0.000000 0.000000 0.000000 0.000000 -0.000000 2.756287 -4.326325 0.652219 2.091401 -1.971712 0.331185 2.101553 -1.960781 0.290784 -3.701479 2.817802 -1.962381 -4.412353 4.191442 3.057983 0.000000 0.000000 -0.000000 0.000000 0.000000 -0.000000 0.000000 0.000000 -0.000000 0.000000 0.000000 -0.000000 -0.000000 0.000000 0.000000 0.000000 0.000000 -0.000000 -0.000000 0.000000 0.000000 0.000000 0.000000 -0.000000 0.000000 0.000000 -0.000000 0.422837 -7.437709 -14.676256 8.954186 -21.269943 -30.417718 0.000112 -105.752864 0.000102 2.237439 -11.928484 36.671545 -2.059426 0.844658 7.613032 10.105920 19.485234 3.288338 0.000000 0.000003 0.000000 1.899123 4.233458 -55.023611 2.222704 4.593271 -51.626822 -0.000000 -0.000001 -0.000002 2.815125 7.320442 -60.275142 2.670965 4.913919 -57.031601 0.000000 0.000001 -0.000003 3.549136 7.701756 -66.458205 3.215082 5.225505 -63.183321 -0.000002 0.000000 0.000001 9.107013 16.803818 -71.053659 3.603625 5.403606 -67.376196 -0.000002 0.000001 0.000001 0.000003 0.000000 -0.000000 0.405080 11.967744 12.551549 20.508372 2.106679 53.542953 -0.005960 91.447524 0.006122 -8.346847 27.233636 -17.709417 -2.954866 1.146686 -6.997575 10.423569 -21.384472 -3.850418 -0.000002 0.000000 0.000004 0.411842 -0.131738 54.494623 1.771458 -3.656904 51.680264 -0.000002 0.000000 0.000002 2.147946 -6.176355 59.588681 2.128229 -3.911981 57.081674 -0.000000 -0.000001 -0.000001 2.761955 -6.508179 65.759402 2.561199 -4.159802 63.227519 -0.000000 -0.000000 -0.000002 4.528844 -9.730316 70.361310 2.870271 -4.301396 67.415169 0.000001 0.000001 0.000001 0.000002 0.000003 -0.000002 -0.000001 0.000001 -0.000000 -0.000001 0.000000 0.000000 -0.000001 0.000001 -0.000000 -0.000001 0.000001 -0.000000 -0.000001 0.000001 -0.000000 -0.000001 0.000000 0.000000 -0.000001 0.000001 -0.000000 -0.000001 0.000001 -0.000000 -0.000001 0.000001 -0.000000 -0.000001 0.000000 0.000000 0.000000 0.000000 0.000000 0.000000 0.000000 0.000000 0.000000 0.000000 0.000000 
-0.166030 71.104446 1.880982 2.188473 -1.223024 -3.918246 0.000000 0.000000 0.000000 6.395180 12.141113 -0.333335 18.522834 1.263608 -0.155938 -15.882886 -0.147556 1.924185 0.000000 0.000001 -0.000000 0.000000 -0.000000 0.000002 -41.779386 -7.236214 4.741636 71.646478 -7.498761 -0.543957 20.526885 -2.163691 -8.788390 -0.000000 0.000001 0.000000 -0.000001 0.000000 -0.000000 2.963966 -6.278050 3.570392 2.101544 -2.926346 0.946526 2.117364 -2.928392 0.886007 -3.809899 3.709198 -2.234500 -3.313590 8.270283 0.948882 -0.000000 -0.000000 -0.000000 -0.000000 -0.000000 -0.000000 -0.000000 -0.000000 -0.000000 -0.000000 -0.000000 -0.000000 -0.000000 -0.000000 -0.000000 -0.000000 -0.000000 -0.000000 -0.000000 -0.000000 -0.000000 -0.000000 -0.000000 -0.000000 -0.000000 -0.000000 -0.000000 0.455821 -6.941713 -13.961782 2.053101 -18.937912 -35.162890 0.000054 -111.056062 0.000051 2.309237 -11.979348 38.500964 -2.059414 0.844644 7.613022 10.105903 19.485239 3.288367 0.000001 -0.000002 0.000000 1.971187 4.285593 -55.872993 2.291180 4.646484 -52.476729 -0.000002 -0.000001 -0.000000 2.889499 7.365831 -61.128984 2.744166 4.960461 -57.882274 0.000002 -0.000002 0.000000 3.629227 7.736250 -67.313324 3.292914 5.263962 -64.034786 -0.000000 0.000001 -0.000001 9.187301 16.821805 -71.921072 3.684106 5.436305 -68.228187 -0.000000 0.000002 0.000007 0.000001 0.000003 0.000002 0.469984 11.903503 11.765135 23.306129 1.285488 53.728997 0.001249 94.271992 -0.001314 -8.721065 25.735494 -15.566524 -2.954847 1.146676 -6.997583 10.423556 -21.384479 -3.850416 -0.000001 0.000000 0.000001 0.469713 -0.177617 55.340037 1.825953 -3.699234 52.529718 -0.000000 -0.000001 0.000002 2.206229 -6.213839 60.440925 2.186502 -3.948987 57.931656 -0.000000 -0.000001 0.000003 2.825192 -6.536549 66.612574 2.623126 -4.190383 64.078007 0.000002 -0.000001 -0.000002 4.593484 -9.749765 71.218328 2.934269 -4.327423 68.265944 -0.000001 0.000001 0.000001 -0.000000 -0.000001 0.000000 -0.000001 0.000000 -0.000000 0.000000 0.000000 -0.000000 -0.000001 0.000000 -0.000000 -0.000001 0.000000 -0.000000 -0.000001 0.000000 -0.000000 0.000000 0.000000 -0.000000 -0.000001 0.000000 -0.000000 -0.000001 0.000000 -0.000000 -0.000001 0.000000 -0.000000 0.000000 0.000000 -0.000000 0.000000 0.000000 0.000000 0.000000 0.000000 0.000000 0.000000 0.000000 0.000000 
-0.407285 71.936226 1.911892 3.306843 -1.915588 -7.043110 0.000000 0.000000 0.000000 5.988469 14.397286 4.577892 24.795363 0.327127 -0.239570 -10.996669 0.386801 -0.471242 -0.000001 0.000000 -0.000000 0.000001 0.000000 -0.000000 -40.764044 -6.832300 10.452933 52.824451 -7.430094 -0.535699 17.783031 -1.301402 -5.935007 0.000002 0.000001 -0.000000 0.000004 0.000001 -0.000001 2.817335 -7.859633 7.333782 1.888586 -3.437587 1.468317 1.905385 -3.457232 1.386903 -3.861203 4.398317 -2.420432 -2.128023 11.559908 -1.244778 0.000000 0.000000 -0.000000 0.000000 0.000000 -0.000000 0.000000 0.000000 0.000000 0.000000 0.000000 -0.000000 0.000000 0.000000 -0.000000 0.000000 0.000000 -0.000000 0.000000 0.000000 -0.000000 0.000000 0.000000 -0.000000 0.000000 0.000000 -0.000000 0.541582 -5.580358 -12.971804 -4.035227 -17.783323 -39.155600 0.000014 -117.133141 0.000007 2.778121 -8.364476 38.185689 -2.059415 0.844652 7.613020 10.105924 19.485241 3.288357 0.000000 -0.000000 0.000002 2.144755 4.402223 -57.889644 2.456774 4.768675 -54.494251 -0.000001 -0.000000 -0.000002 3.068677 7.469095 -63.156027 2.920663 5.066561 -59.901681 0.000005 0.000002 0.000003 3.821319 7.813340 -69.343243 3.479896 5.350601 -66.056023 0.000000 0.000002 -0.000001 9.383830 16.868491 -73.981802 3.876968 5.509082 -70.250470 -0.000002 0.000001 -0.000000 -0.000001 -0.000001 0.000004 0.559234 12.859280 10.763970 25.670875 -0.581216 53.163092 0.000306 99.839464 -0.000299 -6.859792 22.923853 -14.801327 -2.954852 1.146668 -6.997580 10.423571 -21.384479 -3.850419 -0.000000 0.000000 0.000001 0.608451 -0.277257 57.347286 1.957752 -3.796450 54.546120 -0.000000 0.000000 -0.000003 2.346782 -6.299280 62.464013 2.326953 -4.033375 59.949233 -0.000000 0.000000 0.000001 2.976928 -6.600028 68.637698 2.771848 -4.259270 66.096758 0.000002 -0.000001 0.000003 4.749314 -9.794975 73.252693 3.087688 -4.385276 70.285413 -0.000001 0.000001 -0.000001 0.000002 -0.000000 0.000000 -0.000000 -0.000001 -0.000000 -0.000000 0.000001 -0.000000 -0.000000 -0.000001 -0.000000 -0.000000 -0.000001 -0.000000 -0.000000 -0.000001 -0.000000 -0.000000 0.000001 -0.000000 -0.000000 -0.000001 -0.000000 -0.000000 -0.000001 -0.000000 -0.000000 -0.000001 -0.000000 -0.000000 0.000001 -0.000000 0.000000 0.000000 0.000000 0.000000 0.000000 0.000000 0.000000 0.000000 0.000000 
-0.505817 72.743874 2.034101 4.511016 -1.472990 -6.527947 0.000000 -0.000000 0.000000 5.714476 13.582897 5.461676 28.943313 -0.208113 -0.225750 3.414265 0.490949 -2.467007 0.000001 0.000001 -0.000000 -0.000000 0.000001 -0.000000 -35.787323 -4.288489 11.533963 27.961603 -4.330667 -0.362165 16.584679 -0.296696 -3.699070 0.000000 -0.000000 0.000000 0.000003 -0.000000 -0.000000 2.146063 -9.068363 7.251771 1.515625 -3.757883 1.533410 1.521834 -3.788807 1.449469 -4.165543 4.812795 -2.715797 -1.303376 12.885214 -1.430176 0.000000 -0.000000 0.000000 0.000000 -0.000000 0.000000 0.000000 -0.000000 0.000000 0.000000 -0.000000 0.000000 0.000000 -0.000000 0.000000 0.000000 -0.000000 0.000000 0.000000 -0.000000 0.000000 0.000000 -0.000000 0.000000 0.000000 -0.000000 0.000000 0.542323 -6.084361 -12.550345 -5.299027 -16.627879 -39.087492 -0.000021 -122.665539 -0.000004 3.073478 -6.102006 35.936490 -2.059420 0.844645 7.613038 10.105917 19.485225 3.288332 -0.000000 0.000005 -0.000001 2.354309 4.527191 -60.279070 2.658339 4.905741 -56.884373 0.000001 -0.000000 -0.000000 3.285521 7.583183 -65.557549 3.134395 5.184094 -62.293955 -0.000002 0.000003 0.000001 4.052241 7.895836 -71.747954 3.705160 5.444628 -68.450366 -0.000001 -0.000001 -0.000000 9.628531 16.930753 -76.426238 4.108617 5.586459 -72.646063 0.000002 -0.000000 -0.000001 -0.000001 -0.000003 0.000001 0.637399 13.759495 9.867565 27.412648 -2.255971 53.594247 0.000232 103.453570 -0.000208 -5.093457 21.221681 -15.335651 -2.954852 1.146672 -6.997600 10.423582 -21.384486 -3.850436 0.000002 -0.000001 0.000002 0.774263 -0.378404 59.725879 2.118200 -3.905475 56.934603 -0.000000 -0.000001 0.000002 2.517051 -6.393997 64.860501 2.497017 -4.126860 62.339082 0.000000 0.000001 -0.000001 3.159414 -6.668297 71.036474 2.951026 -4.334033 68.487885 -0.000000 -0.000001 0.000002 4.938356 -9.846916 75.662670 3.271859 -4.446802 72.677277 0.000001 0.000001 -0.000003 0.000001 0.000000 0.000000 0.000001 -0.000001 0.000000 0.000001 -0.000001 0.000000 0.000001 -0.000001 0.000000 0.000001 -0.000001 0.000000 0.000001 -0.000001 0.000000 0.000001 -0.000001 0.000000 0.000001 -0.000001 0.000000 0.000001 -0.000001 0.000000 0.000001 -0.000001 0.000000 0.000001 -0.000001 0.000000 0.000000 -0.000000 0.000000 0.000000 -0.000000 0.000000 0.000000 -0.000000 0.000000 
